# xmcd
#
# Track frame offsets: 
#        150
#        17195
#        34242
#        54395
#        74129
#        92315
#        111316
#        131415
#        156842
#        176552
#        194469
#        212792
#        230341
#        248761
#        281245
#        305481
#
# Disc length: 4342 seconds
#
# Revision: 0
# Processed by: cddbd v1.5.2PL0 Copyright (c) Steve Scherf et al.
# Submitted via: ExactAudioCopy v1.0b3
#
DISCID=e810f410
DTITLE=Various Artist - Dolphin Trance Vol. 4
DYEAR=1900
DGENRE=
TTITLE0=Calido - El Caldo (P. Marsh Trance Radio Edit)
TTITLE1=DJ A.M. - Ritmo El Molto Forte (DJ Kim's Short Trance Mix)
TTITLE2=Plasma - Restricted Area (Original Mix)
TTITLE3=DJ Crack - The Access Of Trance (Short Cut)
TTITLE4=Ray Clarke - Magic Fly (Short Cut)
TTITLE5=Jack Handerson - Syntax (Short Main Mix)
TTITLE6=Xpose - Cyclone (Short Main Floor Mix)
TTITLE7=Phobia - Back In Trance (Short Main Floor Mix)
TTITLE8=Detune - Dreaming (Radio Mix)
TTITLE9=Interspace - Magic Dream (Short Friendship Mix)
TTITLE10=Interspace - Xperience (Short Electric Dream Cut)
TTITLE11=Cosmic Vibrations - I Know Your Dreams (Short Cut)
TTITLE12=Papaya - World In My Eyes (Short Cut)
TTITLE13=Jason Tyrello - When Da Sun Is Gone (Relaxation Mix)
TTITLE14=Beatproduction - 88 Heartbeat (Original Mix)
TTITLE15=Richard Van Arp - Artico Purcente (Orbit Mix)
EXTD=
EXTT0=
EXTT1=
EXTT2=
EXTT3=
EXTT4=
EXTT5=
EXTT6=
EXTT7=
EXTT8=
EXTT9=
EXTT10=
EXTT11=
EXTT12=
EXTT13=
EXTT14=
EXTT15=
PLAYORDER=
